HIERARCHY
ROOT mixamorig:Hips
{
	OFFSET -0.000008 104.274872 1.554316
	CHANNELS 6 Xposition Yposition Zposition Xrotation Yrotation Zrotation
	JOINT mixamorig:Spine
	{
		OFFSET -0.000005 10.181595 0.131519
		CHANNELS 6 Xposition Yposition Zposition Xrotation Yrotation Zrotation
		JOINT mixamorig:Spine1
		{
			OFFSET -0.000000 9.893959 -1.470707
			CHANNELS 6 Xposition Yposition Zposition Xrotation Yrotation Zrotation
			JOINT mixamorig:Spine2
			{
				OFFSET -0.000000 9.220757 -1.370641
				CHANNELS 6 Xposition Yposition Zposition Xrotation Yrotation Zrotation
				JOINT mixamorig:Neck
				{
					OFFSET 0.000001 16.740417 -2.049036
					CHANNELS 6 Xposition Yposition Zposition Xrotation Yrotation Zrotation
					JOINT mixamorig:Head
					{
						OFFSET 0.000000 9.617874 1.685006
						CHANNELS 6 Xposition Yposition Zposition Xrotation Yrotation Zrotation
						JOINT mixamorig:HeadTop_End
						{
							OFFSET 0.000002 22.037354 7.501101
							CHANNELS 6 Xposition Yposition Zposition Xrotation Yrotation Zrotation
							End Site
							{
								OFFSET 0.000168 2310.654297 -282.823242
							}
						}
					}
				}
				JOINT mixamorig:RightShoulder
				{
					OFFSET -4.569970 11.014908 -2.160885
					CHANNELS 6 Xposition Yposition Zposition Xrotation Yrotation Zrotation
					JOINT mixamorig:RightArm
					{
						OFFSET -10.592851 -0.524811 -2.232101
						CHANNELS 6 Xposition Yposition Zposition Xrotation Yrotation Zrotation
						JOINT mixamorig:RightForeArm
						{
							OFFSET -27.841511 0.000031 -0.000004
							CHANNELS 6 Xposition Yposition Zposition Xrotation Yrotation Zrotation
							JOINT mixamorig:RightHand
							{
								OFFSET -28.328831 -0.000015 0.000015
								CHANNELS 6 Xposition Yposition Zposition Xrotation Yrotation Zrotation
								JOINT mixamorig:RightHandThumb1
								{
									OFFSET -2.464806 -1.573990 2.681852
									CHANNELS 6 Xposition Yposition Zposition Xrotation Yrotation Zrotation
									JOINT mixamorig:RightHandThumb2
									{
										OFFSET -3.215179 -1.872803 1.924282
										CHANNELS 6 Xposition Yposition Zposition Xrotation Yrotation Zrotation
										JOINT mixamorig:RightHandThumb3
										{
											OFFSET -2.654831 -1.527969 1.512609
											CHANNELS 6 Xposition Yposition Zposition Xrotation Yrotation Zrotation
											JOINT mixamorig:RightHandThumb4
											{
												OFFSET -2.018814 -1.152008 1.108052
												CHANNELS 6 Xposition Yposition Zposition Xrotation Yrotation Zrotation
												End Site
												{
													OFFSET -188.809540 -114.533607 132.431396
												}
											}
										}
									}
								}
								JOINT mixamorig:RightHandIndex1
								{
									OFFSET -9.108284 -0.517868 2.259835
									CHANNELS 6 Xposition Yposition Zposition Xrotation Yrotation Zrotation
									JOINT mixamorig:RightHandIndex2
									{
										OFFSET -3.699989 0.000000 0.001215
										CHANNELS 6 Xposition Yposition Zposition Xrotation Yrotation Zrotation
										JOINT mixamorig:RightHandIndex3
										{
											OFFSET -2.850006 0.000031 -0.000522
											CHANNELS 6 Xposition Yposition Zposition Xrotation Yrotation Zrotation
											JOINT mixamorig:RightHandIndex4
											{
												OFFSET -2.772186 -0.000015 -0.000020
												CHANNELS 6 Xposition Yposition Zposition Xrotation Yrotation Zrotation
												End Site
												{
													OFFSET -277.218445 0.000000 -0.050231
												}
											}
										}
									}
								}
								JOINT mixamorig:RightHandMiddle1
								{
									OFFSET -9.532516 -0.000031 -0.000023
									CHANNELS 6 Xposition Yposition Zposition Xrotation Yrotation Zrotation
									JOINT mixamorig:RightHandMiddle2
									{
										OFFSET -3.700005 -0.000015 0.003713
										CHANNELS 6 Xposition Yposition Zposition Xrotation Yrotation Zrotation
										JOINT mixamorig:RightHandMiddle3
										{
											OFFSET -2.949974 0.000015 -0.002054
											CHANNELS 6 Xposition Yposition Zposition Xrotation Yrotation Zrotation
											JOINT mixamorig:RightHandMiddle4
											{
												OFFSET -2.946640 0.000000 -0.000156
												CHANNELS 6 Xposition Yposition Zposition Xrotation Yrotation Zrotation
												End Site
												{
													OFFSET -294.664337 0.000000 -0.113670
												}
											}
										}
									}
								}
								JOINT mixamorig:RightHandRing1
								{
									OFFSET -9.103600 -0.043076 -1.865134
									CHANNELS 6 Xposition Yposition Zposition Xrotation Yrotation Zrotation
									JOINT mixamorig:RightHandRing2
									{
										OFFSET -3.379288 0.000000 -0.001055
										CHANNELS 6 Xposition Yposition Zposition Xrotation Yrotation Zrotation
										JOINT mixamorig:RightHandRing3
										{
											OFFSET -2.889687 -0.000015 0.000379
											CHANNELS 6 Xposition Yposition Zposition Xrotation Yrotation Zrotation
											JOINT mixamorig:RightHandRing4
											{
												OFFSET -2.638809 -0.000015 0.000941
												CHANNELS 6 Xposition Yposition Zposition Xrotation Yrotation Zrotation
												End Site
												{
													OFFSET -263.880371 0.000000 0.516020
												}
											}
										}
									}
								}
								JOINT mixamorig:RightHandPinky1
								{
									OFFSET -8.076683 -0.486710 -3.806280
									CHANNELS 6 Xposition Yposition Zposition Xrotation Yrotation Zrotation
									JOINT mixamorig:RightHandPinky2
									{
										OFFSET -3.600014 -0.000015 -0.003747
										CHANNELS 6 Xposition Yposition Zposition Xrotation Yrotation Zrotation
										JOINT mixamorig:RightHandPinky3
										{
											OFFSET -2.099983 0.000000 -0.005739
											CHANNELS 6 Xposition Yposition Zposition Xrotation Yrotation Zrotation
											JOINT mixamorig:RightHandPinky4
											{
												OFFSET -2.115768 -0.000031 -0.003680
												CHANNELS 6 Xposition Yposition Zposition Xrotation Yrotation Zrotation
												End Site
												{
													OFFSET -211.577087 0.000000 -0.350686
												}
											}
										}
									}
								}
							}
						}
					}
				}
				JOINT mixamorig:LeftShoulder
				{
					OFFSET 4.570447 11.014725 -2.160855
					CHANNELS 6 Xposition Yposition Zposition Xrotation Yrotation Zrotation
					JOINT mixamorig:LeftArm
					{
						OFFSET 10.592371 -0.524597 -2.232119
						CHANNELS 6 Xposition Yposition Zposition Xrotation Yrotation Zrotation
						JOINT mixamorig:LeftForeArm
						{
							OFFSET 27.841532 -0.000031 0.000026
							CHANNELS 6 Xposition Yposition Zposition Xrotation Yrotation Zrotation
							JOINT mixamorig:LeftHand
							{
								OFFSET 28.328846 -0.000061 0.000022
								CHANNELS 6 Xposition Yposition Zposition Xrotation Yrotation Zrotation
								JOINT mixamorig:LeftHandThumb1
								{
									OFFSET 2.466141 -1.576172 2.681732
									CHANNELS 6 Xposition Yposition Zposition Xrotation Yrotation Zrotation
									JOINT mixamorig:LeftHandThumb2
									{
										OFFSET 3.217812 -1.872070 1.916482
										CHANNELS 6 Xposition Yposition Zposition Xrotation Yrotation Zrotation
										JOINT mixamorig:LeftHandThumb3
										{
											OFFSET 2.656029 -1.528778 1.514513
											CHANNELS 6 Xposition Yposition Zposition Xrotation Yrotation Zrotation
											JOINT mixamorig:LeftHandThumb4
											{
												OFFSET 2.020889 -1.154053 1.115139
												CHANNELS 6 Xposition Yposition Zposition Xrotation Yrotation Zrotation
												End Site
												{
													OFFSET 190.885437 -115.081749 130.048782
												}
											}
										}
									}
								}
								JOINT mixamorig:LeftHandIndex1
								{
									OFFSET 9.109314 -0.518021 2.259871
									CHANNELS 6 Xposition Yposition Zposition Xrotation Yrotation Zrotation
									JOINT mixamorig:LeftHandIndex2
									{
										OFFSET 3.699989 0.000000 -0.000322
										CHANNELS 6 Xposition Yposition Zposition Xrotation Yrotation Zrotation
										JOINT mixamorig:LeftHandIndex3
										{
											OFFSET 2.850006 0.000000 0.000352
											CHANNELS 6 Xposition Yposition Zposition Xrotation Yrotation Zrotation
											JOINT mixamorig:LeftHandIndex4
											{
												OFFSET 2.774864 -0.000031 -0.000027
												CHANNELS 6 Xposition Yposition Zposition Xrotation Yrotation Zrotation
												End Site
												{
													OFFSET 277.486267 0.000000 -0.009857
												}
											}
										}
									}
								}
								JOINT mixamorig:LeftHandMiddle1
								{
									OFFSET 9.533394 0.000061 0.000044
									CHANNELS 6 Xposition Yposition Zposition Xrotation Yrotation Zrotation
									JOINT mixamorig:LeftHandMiddle2
									{
										OFFSET 3.699989 -0.000015 -0.000231
										CHANNELS 6 Xposition Yposition Zposition Xrotation Yrotation Zrotation
										JOINT mixamorig:LeftHandMiddle3
										{
											OFFSET 2.949997 -0.000015 -0.000059
											CHANNELS 6 Xposition Yposition Zposition Xrotation Yrotation Zrotation
											JOINT mixamorig:LeftHandMiddle4
											{
												OFFSET 2.952896 0.000031 0.000063
												CHANNELS 6 Xposition Yposition Zposition Xrotation Yrotation Zrotation
												End Site
												{
													OFFSET 295.289337 0.000000 0.022810
												}
											}
										}
									}
								}
								JOINT mixamorig:LeftHandRing1
								{
									OFFSET 9.104523 -0.042999 -1.865074
									CHANNELS 6 Xposition Yposition Zposition Xrotation Yrotation Zrotation
									JOINT mixamorig:LeftHandRing2
									{
										OFFSET 3.150009 -0.000031 0.000043
										CHANNELS 6 Xposition Yposition Zposition Xrotation Yrotation Zrotation
										JOINT mixamorig:LeftHandRing3
										{
											OFFSET 2.949982 -0.000015 0.000040
											CHANNELS 6 Xposition Yposition Zposition Xrotation Yrotation Zrotation
											JOINT mixamorig:LeftHandRing4
											{
												OFFSET 2.644348 0.000000 0.000057
												CHANNELS 6 Xposition Yposition Zposition Xrotation Yrotation Zrotation
												End Site
												{
													OFFSET 264.434631 0.000000 0.012105
												}
											}
										}
									}
								}
								JOINT mixamorig:LeftHandPinky1
								{
									OFFSET 8.077789 -0.486847 -3.806259
									CHANNELS 6 Xposition Yposition Zposition Xrotation Yrotation Zrotation
									JOINT mixamorig:LeftHandPinky2
									{
										OFFSET 3.599953 0.000031 0.014727
										CHANNELS 6 Xposition Yposition Zposition Xrotation Yrotation Zrotation
										JOINT mixamorig:LeftHandPinky3
										{
											OFFSET 2.100021 0.000015 0.007705
											CHANNELS 6 Xposition Yposition Zposition Xrotation Yrotation Zrotation
											JOINT mixamorig:LeftHandPinky4
											{
												OFFSET 2.125504 0.000031 0.007517
												CHANNELS 6 Xposition Yposition Zposition Xrotation Yrotation Zrotation
												End Site
												{
													OFFSET 212.550781 0.000000 0.625752
												}
											}
										}
									}
								}
							}
						}
					}
				}
			}
		}
	}
	JOINT mixamorig:RightUpLeg
	{
		OFFSET -8.207787 -6.751648 -1.599560
		CHANNELS 6 Xposition Yposition Zposition Xrotation Yrotation Zrotation
		JOINT mixamorig:RightLeg
		{
			OFFSET -0.000002 -44.370117 0.345942
			CHANNELS 6 Xposition Yposition Zposition Xrotation Yrotation Zrotation
			JOINT mixamorig:RightFoot
			{
				OFFSET 0.000003 -44.423679 -3.043532
				CHANNELS 6 Xposition Yposition Zposition Xrotation Yrotation Zrotation
				JOINT mixamorig:RightToeBase
				{
					OFFSET -0.000002 -8.728671 10.710558
					CHANNELS 6 Xposition Yposition Zposition Xrotation Yrotation Zrotation
					JOINT mixamorig:RightToe_End
					{
						OFFSET -0.000001 -0.000679 9.278119
						CHANNELS 6 Xposition Yposition Zposition Xrotation Yrotation Zrotation
						End Site
						{
							OFFSET 0.000000 -0.067690 927.812134
						}
					}
				}
			}
		}
	}
	JOINT mixamorig:LeftUpLeg
	{
		OFFSET 8.207793 -6.751686 -1.599556
		CHANNELS 6 Xposition Yposition Zposition Xrotation Yrotation Zrotation
		JOINT mixamorig:LeftLeg
		{
			OFFSET -0.000004 -44.370014 0.346954
			CHANNELS 6 Xposition Yposition Zposition Xrotation Yrotation Zrotation
			JOINT mixamorig:LeftFoot
			{
				OFFSET -0.000001 -44.423672 -3.044401
				CHANNELS 6 Xposition Yposition Zposition Xrotation Yrotation Zrotation
				JOINT mixamorig:LeftToeBase
				{
					OFFSET -0.000002 -8.728669 10.710558
					CHANNELS 6 Xposition Yposition Zposition Xrotation Yrotation Zrotation
					JOINT mixamorig:LeftToe_End
					{
						OFFSET -0.000003 -0.000679 9.278133
						CHANNELS 6 Xposition Yposition Zposition Xrotation Yrotation Zrotation
						End Site
						{
							OFFSET 0.000000 -0.068021 927.813477
						}
					}
				}
			}
		}
	}
}
MOTION
Frames: 3
Frame Time: 0.033333
0.000006 104.270477 1.554256 0.000010 0.000003 -0.000113 -0.000005 10.181587 0.131522 0.000001 -0.000003 0.000084 -0.000000 9.893967 -1.470711 0.000001 0.000000 -0.000000 -0.000000 9.220802 -1.370642 0.000000 -0.000000 -0.000000 0.000001 16.740433 -2.049030 0.000000 -0.000000 -0.000000 0.000000 9.617859 1.685014 0.000000 0.000000 0.000000 0.000002 22.037384 7.501101 0.000000 -0.000000 0.000000 -4.569968 11.014880 -2.160881 0.000008 0.000001 -0.000038 -10.592779 -0.524844 -2.231750 73.876077 65.564072 -51.673209 -27.841475 0.000006 0.000571 237.068244 66.130158 -259.736412 -28.328835 0.000007 0.000027 -0.000319 -0.000044 0.000006 -2.464412 -1.574131 2.682156 43.435885 -110.270460 91.366006 -3.214925 -1.873037 1.924441 -76.205274 -46.804985 -31.324689 -2.654574 -1.528266 1.512885 -101.471968 -46.084721 -49.146602 -2.018823 -1.152019 1.108066 -0.000001 -0.000005 0.000000 -9.108311 -0.518024 2.260241 -98.090061 5.787829 6.705526 -3.700011 -0.000088 0.001679 -113.448465 7.490643 11.368154 -2.850022 -0.000061 -0.000012 -123.643158 4.991429 9.301522 -2.772156 -0.000000 -0.000018 -0.000001 0.000001 -0.000000 -9.532508 -0.000027 0.000541 -130.215945 21.861185 45.290462 -3.699918 -0.000021 0.004298 -191.595972 21.811931 -123.929234 -2.950033 0.000241 -0.001565 -212.953373 6.063602 -20.281463 -2.946626 0.000016 -0.000162 -0.000002 0.000000 0.000001 -9.103601 -0.043025 -1.864564 224.642982 23.696534 -305.892945 -3.379126 -0.000064 -0.000468 171.830798 17.402352 -130.089695 -2.889714 0.000273 0.000879 156.644009 -0.283775 1.177284 -2.638808 0.000000 0.000940 0.000001 -0.000002 -0.000000 -8.076693 -0.486816 -3.805854 254.664396 10.443497 -346.460089 -3.599998 -0.000167 -0.003262 245.385584 6.376115 9.494479 -2.099987 -0.000140 -0.005252 238.987199 0.685774 0.860776 -2.115777 -0.000054 -0.003690 0.000001 0.000001 -0.000003 4.570446 11.014691 -2.160851 -0.000018 0.000010 -0.000021 10.592526 -0.524530 -2.232395 71.615080 -63.854291 48.409919 27.841713 -0.000101 -0.000087 60.608087 -110.522617 80.250625 28.328840 -0.000014 0.000025 0.000022 -0.000089 -0.000000 2.466094 -1.576203 2.681869 45.582900 111.066990 -93.717633 3.217815 -1.872007 1.916526 -80.949326 39.486795 32.449624 2.656062 -1.528772 1.514611 -95.467466 35.318222 40.557950 2.020895 -1.154065 1.115148 0.000002 -0.000000 0.000001 9.109274 -0.517747 2.260097 -125.218992 -8.744230 -16.772614 3.699926 0.000301 -0.000087 -124.976384 -14.362477 -27.216256 2.849927 0.000293 0.000586 -123.821084 -14.856297 -27.453717 2.774878 -0.000029 -0.000050 0.000004 -0.000001 0.000001 9.533345 0.000354 0.000269 -129.997966 -8.246231 -17.562675 3.699915 0.000303 0.000010 -129.067844 -12.625944 -26.152077 2.949940 0.000278 0.000172 -122.557158 -11.578733 -20.968602 2.952868 -0.000015 0.000067 -0.000000 0.000000 -0.000001 9.104465 -0.042762 -1.864858 -123.118272 -10.046604 -18.438365 3.149958 0.000316 0.000284 -120.199937 -9.469734 -16.395287 2.949935 0.000257 0.000307 -113.597698 -7.712059 -11.762978 2.644321 0.000046 0.000047 0.000003 -0.000001 -0.000001 8.077721 -0.486601 -3.806001 -117.909569 -9.780012 -16.786735 3.599919 0.000319 0.014970 -118.499465 -4.840576 -8.760261 2.099983 0.000277 0.007943 -116.432896 -3.854186 -6.814904 2.125491 0.000001 0.007514 0.000002 -0.000002 -0.000001 -8.207786 -6.751667 -1.599560 -0.077001 -0.000003 0.000080 -0.000002 -44.370110 0.345938 0.153719 -0.000000 -0.000000 0.000000 -44.423679 -3.043532 -0.076700 0.000000 -0.000002 -0.000006 -8.728667 10.710559 -0.000009 -0.000000 -0.000000 -0.000001 -0.000679 9.278123 0.000000 -0.000000 -0.000000 8.207792 -6.751710 -1.599556 -0.074518 -0.000003 0.000081 -0.000002 -44.370014 0.346960 0.148822 0.000002 0.000000 -0.000001 -44.423664 -3.044403 -0.074314 0.000000 -0.000002 -0.000004 -8.728671 10.710558 0.000007 -0.000000 -0.000000 0.000000 -0.000680 9.278137 -0.000000 0.000000 -0.000001 
0.000006 104.270477 1.554256 0.000010 0.000003 -0.000113 -0.000005 10.181587 0.131522 0.000001 -0.000003 0.000084 -0.000000 9.893967 -1.470711 0.000001 0.000000 -0.000000 -0.000000 9.220802 -1.370642 0.000000 -0.000000 -0.000000 0.000001 16.740433 -2.049030 0.000000 -0.000000 -0.000000 0.000000 9.617859 1.685014 0.000000 0.000000 0.000000 0.000002 22.037384 7.501101 0.000000 -0.000000 0.000000 -4.569968 11.014880 -2.160881 0.000008 0.000001 -0.000038 -10.592782 -0.524835 -2.231751 73.804866 65.210828 -51.311147 -27.841471 0.000003 0.000582 236.813915 66.087701 -259.483640 -28.328835 0.000006 0.000013 -0.000323 -0.000045 0.000006 -2.464408 -1.574134 2.682161 41.538646 -110.551270 89.692084 -3.214908 -1.873023 1.924469 -78.218534 -47.808739 -32.879096 -2.654578 -1.528273 1.512870 -100.895548 -45.846975 -48.631186 -2.018833 -1.151981 1.108058 -0.000004 0.000002 0.000002 -9.108316 -0.517995 2.260278 -104.861975 8.935753 11.640399 -3.700006 0.000012 0.001788 -136.098554 13.247512 32.119238 -2.849972 0.000132 0.000052 -155.118309 7.425862 32.780673 -2.772164 0.000002 -0.000022 0.000002 -0.000000 0.000000 -9.532520 -0.000066 0.000520 -125.243061 21.150108 39.748190 -3.699911 -0.000037 0.004291 -190.354422 21.928150 -129.376132 -2.950047 0.000252 -0.001562 -211.591693 7.492265 -26.038158 -2.946636 0.000003 -0.000144 0.000002 -0.000002 0.000001 -9.103612 -0.043051 -1.864592 229.598667 22.714142 -313.038498 -3.379123 -0.000073 -0.000468 173.160964 18.562014 -139.940549 -2.889720 0.000226 0.000884 156.687463 1.664066 -8.265697 -2.638807 -0.000015 0.000935 -0.000002 0.000001 -0.000001 -8.076688 -0.486868 -3.805881 257.047913 8.172616 -349.872834 -3.600002 -0.000196 -0.003257 246.370224 5.749085 8.356018 -2.099985 -0.000137 -0.005266 238.452422 0.954478 1.352467 -2.115770 -0.000028 -0.003675 -0.000002 -0.000000 -0.000005 4.570446 11.014691 -2.160851 -0.000018 0.000010 -0.000021 10.592525 -0.524530 -2.232398 71.613727 -62.800010 47.532471 27.841707 -0.000085 -0.000081 60.594419 -110.790791 80.517753 28.328838 -0.000043 0.000020 0.000021 -0.000087 0.000000 2.466092 -1.576200 2.681879 49.277991 110.739517 -97.048239 3.217834 -1.871999 1.916536 -81.270611 38.610431 32.408643 2.656084 -1.528762 1.514628 -97.038109 33.822246 40.926558 2.020898 -1.154084 1.115154 0.000004 0.000001 0.000006 9.109240 -0.517715 2.260095 -131.679080 -10.913157 -24.026790 3.699859 0.000298 -0.000119 -135.290789 -18.182037 -42.537107 2.849864 0.000312 0.000562 -137.551513 -17.937002 -44.230119 2.774871 -0.000031 -0.000012 -0.000000 -0.000000 0.000000 9.533353 0.000351 0.000284 -128.482525 -7.882025 -16.238828 3.699920 0.000294 0.000003 -125.227748 -13.754032 -26.208493 2.949938 0.000285 0.000173 -119.376694 -12.865005 -21.833432 2.952874 -0.000044 0.000068 0.000004 -0.000000 -0.000000 9.104474 -0.042758 -1.864834 -121.498041 -9.349301 -16.615694 3.149948 0.000302 0.000281 -119.051495 -9.990890 -16.900219 2.949934 0.000277 0.000299 -113.693601 -8.577470 -13.100223 2.644319 0.000014 0.000046 -0.000002 -0.000001 -0.000000 8.077726 -0.486607 -3.806007 -117.421880 -8.293269 -14.235667 3.599936 0.000338 0.014962 -117.482382 -3.833902 -6.948218 2.099970 0.000290 0.007946 -116.950488 -3.565079 -6.417328 2.125506 -0.000014 0.007508 0.000003 -0.000001 -0.000001 -8.207786 -6.751667 -1.599560 -0.077001 -0.000003 0.000080 -0.000002 -44.370110 0.345938 0.153719 -0.000000 -0.000000 0.000000 -44.423679 -3.043532 -0.076700 0.000000 -0.000002 -0.000006 -8.728667 10.710559 -0.000009 -0.000000 -0.000000 -0.000001 -0.000679 9.278123 0.000000 -0.000000 -0.000000 8.207792 -6.751710 -1.599556 -0.074518 -0.000003 0.000081 -0.000002 -44.370014 0.346960 0.148822 0.000002 0.000000 -0.000001 -44.423664 -3.044403 -0.074314 0.000000 -0.000002 -0.000004 -8.728671 10.710558 0.000007 -0.000000 -0.000000 0.000000 -0.000680 9.278137 -0.000000 0.000000 -0.000001 
0.000006 104.270477 1.554256 0.000010 0.000003 -0.000113 -0.000005 10.181587 0.131522 0.000001 -0.000003 0.000084 -0.000000 9.893967 -1.470711 0.000001 0.000000 -0.000000 -0.000000 9.220802 -1.370642 0.000000 -0.000000 -0.000000 0.000001 16.740433 -2.049030 0.000000 -0.000000 -0.000000 0.000000 9.617859 1.685014 0.000000 0.000000 0.000000 0.000002 22.037384 7.501101 0.000000 -0.000000 0.000000 -4.569968 11.014880 -2.160881 0.000008 0.000001 -0.000038 -10.592783 -0.524839 -2.231748 73.966939 65.544510 -51.730558 -27.841480 0.000014 0.000586 236.813997 67.171871 -258.324694 -28.328833 0.000007 0.000025 -0.000315 -0.000044 0.000006 -2.464413 -1.574139 2.682177 40.909592 -110.896160 89.287511 -3.214925 -1.873032 1.924445 -78.129195 -47.656515 -32.782763 -2.654580 -1.528270 1.512885 -99.838036 -45.503414 -47.733060 -2.018822 -1.151989 1.108060 -0.000003 -0.000000 0.000003 -9.108311 -0.518023 2.260273 -100.580047 5.995418 7.256172 -3.700023 -0.000112 0.001713 -116.293000 7.949712 12.737153 -2.850033 -0.000042 0.000011 -124.244119 5.017146 9.467719 -2.772162 0.000016 -0.000017 -0.000001 -0.000001 -0.000000 -9.532511 -0.000044 0.000540 -129.139438 21.301371 43.259160 -3.699904 -0.000055 0.004290 -191.563488 22.135286 -124.778049 -2.950037 0.000247 -0.001577 -214.996105 6.687838 -20.977336 -2.946623 0.000004 -0.000149 -0.000002 0.000002 -0.000004 -9.103607 -0.043031 -1.864568 226.068128 22.409566 -310.066246 -3.379152 -0.000040 -0.000462 170.730878 18.069231 -126.084964 -2.889729 0.000288 0.000871 152.284532 0.390058 -1.749388 -2.638820 0.000016 0.000930 -0.000002 -0.000000 0.000001 -8.076701 -0.486845 -3.805841 254.708874 9.525029 -347.670808 -3.600010 -0.000158 -0.003273 243.553262 6.331477 9.764041 -2.099980 -0.000137 -0.005272 235.886648 0.942743 1.404443 -2.115777 -0.000056 -0.003686 0.000001 0.000002 -0.000003 4.570446 11.014691 -2.160851 -0.000018 0.000010 -0.000021 10.592527 -0.524519 -2.232401 71.986717 -62.663086 47.708721 27.841713 -0.000086 -0.000073 60.550009 -111.066464 80.758647 28.328840 -0.000029 0.000008 0.000020 -0.000088 -0.000000 2.466092 -1.576193 2.681849 50.226363 111.288008 -98.262947 3.217829 -1.871999 1.916551 -81.264819 38.172059 32.288282 2.656054 -1.528757 1.514619 -95.653377 32.064262 39.401077 2.020898 -1.154058 1.115146 0.000003 -0.000000 0.000003 9.109247 -0.517716 2.260081 -131.573253 -10.993709 -24.142174 3.699845 0.000274 -0.000119 -136.767066 -19.471531 -46.838046 2.849865 0.000300 0.000580 -137.580296 -19.695132 -48.196950 2.774881 -0.000030 -0.000022 -0.000001 0.000000 -0.000000 9.533359 0.000344 0.000255 -129.258106 -8.069039 -16.907761 3.699924 0.000303 0.000018 -127.371649 -13.821692 -27.539231 2.949941 0.000267 0.000170 -119.675050 -13.256263 -22.617874 2.952874 0.000003 0.000067 -0.000001 0.000001 -0.000000 9.104477 -0.042742 -1.864844 -121.323393 -9.678563 -17.134494 3.149952 0.000302 0.000283 -117.391827 -9.461321 -15.500882 2.949941 0.000265 0.000289 -111.000150 -8.297543 -12.051337 2.644317 0.000016 0.000052 0.000000 -0.000001 0.000000 8.077747 -0.486593 -3.806021 -117.808961 -8.735657 -15.061390 3.599935 0.000329 0.014973 -116.706677 -3.258347 -5.919998 2.099993 0.000270 0.007950 -113.944323 -3.205535 -5.509190 2.125497 0.000014 0.007513 -0.000002 -0.000001 -0.000000 -8.207786 -6.751667 -1.599560 -0.077001 -0.000003 0.000080 -0.000002 -44.370110 0.345938 0.153719 -0.000000 -0.000000 0.000000 -44.423679 -3.043532 -0.076700 0.000000 -0.000002 -0.000006 -8.728667 10.710559 -0.000009 -0.000000 -0.000000 -0.000001 -0.000679 9.278123 0.000000 -0.000000 -0.000000 8.207792 -6.751710 -1.599556 -0.074518 -0.000003 0.000081 -0.000002 -44.370014 0.346960 0.148822 0.000002 0.000000 -0.000001 -44.423664 -3.044403 -0.074314 0.000000 -0.000002 -0.000004 -8.728671 10.710558 0.000007 -0.000000 -0.000000 0.000000 -0.000680 9.278137 -0.000000 0.000000 -0.000001 
